<svg width="44" height="50" viewBox="0 0 44 50" fill="none" xmlns="http://www.w3.org/2000/svg">
<path d="M9.5 0C4.32422 0 0.125 4.19922 0.125 9.375V40.625C0.125 45.8008 4.32422 50 9.5 50H37.625H40.75C42.4785 50 43.875 48.6035 43.875 46.875C43.875 45.1465 42.4785 43.75 40.75 43.75V37.5C42.4785 37.5 43.875 36.1035 43.875 34.375V3.125C43.875 1.39648 42.4785 0 40.75 0H37.625H9.5ZM9.5 37.5H34.5V43.75H9.5C7.77148 43.75 6.375 42.3535 6.375 40.625C6.375 38.8965 7.77148 37.5 9.5 37.5ZM12.625 14.0625C12.625 13.2031 13.3281 12.5 14.1875 12.5H32.9375C33.7969 12.5 34.5 13.2031 34.5 14.0625C34.5 14.9219 33.7969 15.625 32.9375 15.625H14.1875C13.3281 15.625 12.625 14.9219 12.625 14.0625ZM14.1875 18.75H32.9375C33.7969 18.75 34.5 19.4531 34.5 20.3125C34.5 21.1719 33.7969 21.875 32.9375 21.875H14.1875C13.3281 21.875 12.625 21.1719 12.625 20.3125C12.625 19.4531 13.3281 18.75 14.1875 18.75Z" fill="black"/>
</svg>
