<svg width="63" height="50" viewBox="0 0 63 50" fill="none" xmlns="http://www.w3.org/2000/svg">
<g clip-path="url(#clip0_51_154)">
<path d="M38.3594 0.117102C36.6992 -0.361413 34.9707 0.605384 34.4922 2.26554L21.9922 46.0155C21.5137 47.6757 22.4805 49.4042 24.1406 49.8827C25.8008 50.3612 27.5293 49.3944 28.0078 47.7343L40.5078 3.98429C40.9863 2.32413 40.0195 0.595618 38.3594 0.117102ZM46.2305 11.8456C45.0098 13.0663 45.0098 15.0487 46.2305 16.2694L54.9512 24.9999L46.2207 33.7304C45 34.9511 45 36.9335 46.2207 38.1542C47.4414 39.3749 49.4238 39.3749 50.6445 38.1542L61.582 27.2167C62.8027 25.996 62.8027 24.0136 61.582 22.7929L50.6445 11.8554C49.4238 10.6347 47.4414 10.6347 46.2207 11.8554L46.2305 11.8456ZM16.2793 11.8456C15.0586 10.6249 13.0762 10.6249 11.8555 11.8456L0.917969 22.7831C-0.302734 24.0038 -0.302734 25.9862 0.917969 27.2069L11.8555 38.1444C13.0762 39.3652 15.0586 39.3652 16.2793 38.1444C17.5 36.9237 17.5 34.9413 16.2793 33.7206L7.54883 24.9999L16.2793 16.2694C17.5 15.0487 17.5 13.0663 16.2793 11.8456Z" fill="black"/>
</g>
<defs>
<clipPath id="clip0_51_154">
<rect width="62.5" height="50" fill="white"/>
</clipPath>
</defs>
</svg>
