<svg width="50" height="50" viewBox="0 0 50 50" fill="none" xmlns="http://www.w3.org/2000/svg">
<path d="M25 50C31.6304 50 37.9893 47.3661 42.6777 42.6777C47.3661 37.9893 50 31.6304 50 25C50 18.3696 47.3661 12.0107 42.6777 7.32233C37.9893 2.63392 31.6304 0 25 0C18.3696 0 12.0107 2.63392 7.32233 7.32233C2.63392 12.0107 0 18.3696 0 25C0 31.6304 2.63392 37.9893 7.32233 42.6777C12.0107 47.3661 18.3696 50 25 50ZM9.45312 30.6738C9.08203 29.3359 10.1758 28.125 11.5625 28.125H38.4375C39.8242 28.125 40.9277 29.3359 40.5469 30.6738C38.6914 37.3047 32.4316 42.1875 25 42.1875C17.5684 42.1875 11.3086 37.3047 9.45312 30.6738ZM14.1016 18.75C14.1016 17.9212 14.4308 17.1263 15.0169 16.5403C15.6029 15.9542 16.3978 15.625 17.2266 15.625C18.0554 15.625 18.8502 15.9542 19.4363 16.5403C20.0223 17.1263 20.3516 17.9212 20.3516 18.75C20.3516 19.5788 20.0223 20.3737 19.4363 20.9597C18.8502 21.5458 18.0554 21.875 17.2266 21.875C16.3978 21.875 15.6029 21.5458 15.0169 20.9597C14.4308 20.3737 14.1016 19.5788 14.1016 18.75ZM29.375 21.25C28.8574 21.9434 27.8809 22.0801 27.1875 21.5625C26.4941 21.0449 26.3574 20.0684 26.875 19.375C29.8438 15.4199 35.7812 15.4199 38.75 19.375C39.2676 20.0684 39.1309 21.0449 38.4375 21.5625C37.7441 22.0801 36.7676 21.9434 36.25 21.25C34.5312 18.9551 31.0937 18.9551 29.375 21.25Z" fill="black"/>
</svg>
